<svg xmlns="http://www.w3.org/2000/svg" width="242" height="171" viewBox="0 0 242 171">
  <g fill="#e09e28">
    <path d="M25.5 13.6c-6.1.1-12 .7-17 2.1-16.5 4.4-3.9 18.9-3.8 19 5.5-8.5.7-9.3 26.1-9.3 13.9 0 27.6-.5 18.3 9.8C36 49.8 10.2 75.3 1 89.3c27.6 30.2 43.3 52.7 65 70.7 8.8 7.3 18.2 10.6 24.9 10.5 6.6-.1 9.2-2.6 13.1-4.6 4.1-2.1 11.6-11.3 11.6-21.4 0 0 50.9.3 79.6-.4 28.8-.7 47-27.9 46.6-28.3.4.2-29.5 21.7-46.7 21.8-17.1.1-37.7-.2-37.7-.2 0 0-.8-9.5 3.1-15.9 3.9-6.5 12.4-9.9 12.4-9.9l-38.2.4s8.2 3 12.2 9.4c4 6.4 4 16 4 16l-35.7-.2c-1-5.3-3.4-11.2-6.2-13.8-3.9-3.5-4.3-4.2-9.9-5-5.7-.8-7.6-.8-12.7 1.9-5.1 2.7-10.2 12.2-10.4 16-.2 3.7 4.4 11 7.6 9.3 3.2-1.6 5.4-5.1 7.1-8.1.6-1.1.9-1.8.9-2.3 0-.1 0-.1 0-.2 0 0 0-.1 0-.1s-.2-.4-4.6.5-4.7.5-1-1-.5-5.8 1.5-7.8c2.1-2 8.6-2.1 11.9-.2 4.2 2.4 7.7 6.1 7.7 13.5 0 7.7-2.1 9.7-5.8 13.4-8.8 8.6-20.7 15.8-33.2 3.4C56.6 134.4 30.6 105 14.9 89.3 13.5 88 49.7 45.9 61.8 30.9c6.9-8.5 11.3-11.3 11.4-12.5 0 0 0-.1 0-.1-.7-.5-33.5-4.7-47.5-4.5z"/>
    
    <path d="M115.5 19.2c0 15.5 14.3 35.2 15.9 37.5l-16.1 0c-.7-15.8-12.8-28.2-27-28.2-14.6 0-27 13.1-27 29.7 0 16.6 12.4 29.7 27 29.7 14.2 0 26.2-12.3 27-28.2l18.2 0c3.5 5 11.7 17 11.7 23.6 0 9.8-4.1 11.3-9.5 11.3-5.1 0-14.3-10.7-13.8-13.3 0 0 0-.1 0-.1l-7 7.7s15.4 15 22.7 15c10.4 0 18.4-8.8 18.4-19.6 0-11.5-4.2-15-9.5-24.2l15.7 0c.7 15.8 12.8 28.2 27 28.2 14.6 0 27-13.1 27-29.7 0-16.6-12.4-29.7-27-29.7-14.2 0-26.3 12.3-27 28.2l-17.5 0c-1.8-3-21.2-21.5-18.7-37.3 1-6 3.6-8.8 8.8-10.1 9-2.1 12.4 10.2 12.4 10.2 0 0 6.3-3.2 7.2-6 0-2.8-10.9-13.6-19-13.6-7.8 0-17.9 10.7-17.9 19.2zm-36.7 20.5c.2 0 .3 0 .5 0 7.2 0 17.4 6.6 23 17l-11.5 0c-.7-1.5-2.1-2.5-3.8-2.5-2.3 0-4.3 2.1-4.3 4.6s2 4.6 4.3 4.6c2 0 3.8-1.6 4.2-3.7l12.5 0c.6 1.3 1 2.8 1.4 4.2 2.3 8.4 1.9 14.3-6.8 14.3-8.7 0-23.1-6.2-27-14.6-3.6-7.7-1-23.3 7.4-23.9zm98.8 0c.2 0 .4 0 .6 0 8.7 0 22 9.7 25.9 24.2 2.3 8.4 1.9 14.3-6.8 14.3-8.7 0-23.1-6.3-27-14.7-.5-1.1-.9-2.4-1.2-3.8l15 0c.7 1.5 2.1 2.5 3.8 2.5 2.3 0 4.3-2.1 4.3-4.6s-1.9-4.6-4.3-4.6c-.1 0-.2 0-.3 0h-15c-.4-7.6 2.6-16.4 8.8-17z"/>
  </g>
</svg>