<svg xmlns="http://www.w3.org/2000/svg" width="174.29" height="159.75" viewBox="0 0 174.29 159.75">
  <g transform="translate(-238.97627, 1.9827627)">
    <path id="path3235" 
          fill="none" 
          stroke="#e09e28" 
          stroke-width="9.43456" 
          stroke-miterlimit="4" 
          d="m 384.35724,94.778452 c 0,30.982998 -25.47341,56.128638 -56.86028,56.128638 -31.38687,0 -56.86028,-25.14564 -56.86028,-56.128638 0,-30.983002 25.47341,-56.128632 56.86028,-56.128632 31.38687,0 56.86028,25.14563 56.86028,56.128632 z M 247.26498,138.47741 c 15.00446,-31.18886 45.3525,-52.150576 79.93349,-52.150576 35.55629,0 65.90106,22.848386 77.91886,53.532046 -3.03059,0.002 -8.5067,0.89619 -11.94167,0.89619 -45.70486,0 -82.79867,-36.61651 -82.79867,-81.733274 0,-18.97084 7.255,-37.814044 17.10646,-51.4260752 9.14671,13.8855902 18.02914,32.8414602 18.02914,51.1313922 0,45.116757 -37.09381,81.733267 -82.79868,81.733267 -5.03463,0 -10.66135,-1.13193 -15.44893,-1.98297 z" />
  </g>
</svg>