<svg xmlns="http://www.w3.org/2000/svg" width="800" height="200" viewBox="0 0 800 200">
  <g fill="none" stroke="#e09e28" stroke-width="3">
    
    <g transform="translate(20, 40) scale(0.8)" fill="#e09e28" stroke="none">
      <path d="M185.1 138.6c-17.1.1-37.7-.2-37.7-.2 0 0-.8-9.5 3.1-15.9 3.9-6.5 12.4-9.9 12.4-9.9l-38.2.4s8.2 3.1 12.2 9.4c4 6.4 4 16 4 16l-35.7-.2c-1-5.3-3.4-11.2-6.2-13.8-3.9-3.5-4.3-4.2-9.9-5-5.7-.8-7.6-.8-12.7 1.9-5.1 2.7-10.2 12.2-10.4 16-.2 3.7 4.4 11 7.6 9.3 3.2-1.6 5.4-5.1 7.1-8.1.6-1.1.9-1.8.9-2.3 0-.1 0-.1 0-.2s0-.1 0-.1c-.2-.4-4.6.5-4.7.5-1-1-.5-5.8 1.5-7.8 2.1-2 8.6-2.1 11.9-.2 4.2 2.4 7.7 6.1 7.7 13.5 0 7.7-2.1 9.7-5.8 13.4-8.8 8.6-20.7 15.8-33.2 3.4C56.8 135.5 30.8 106 15.1 90.4 13.7 89.1 49.9 47 62 32c6.9-8.5 11.3-11.3 11.4-12.5 0 0-.1-.1-.1-.2-.7-.5-33.5-4.7-47.5-4.5-6.1.1-12 .7-17.1 2-16.4 4.4-3.8 18.9-3.8 19 5.5-8.5.8-9.3 26.2-9.3 13.9 0 27.6-.5 18.3 9.8-13.1 14.5-38.8 40-48.2 54 27.7 30.2 43.3 52.7 65.1 70.7 8.8 7.3 18.2 10.6 24.9 10.5 6.7-.1 9.2-2.6 13.1-4.6 4-2.1 11.6-11.3 11.6-21.4 0 0 50.8.3 79.6-.4 28.8-.7 47-27.9 46.6-28.3.4.2-29.5 21.7-46.7 21.8z"/>
      <path d="M380.8 96.9c0 31-25.5 56.1-56.9 56.1-31.4 0-56.9-25.1-56.9-56.1C267.1 66 292.5 40.8 323.9 40.8c31.4 0 56.9 25.2 56.9 56.1zm-137.1 43.7c15-31.2 45.4-52.2 79.9-52.2 35.6 0 65.9 22.8 77.9 53.5-3 0-8.5.9-11.9.9-45.7 0-82.8-36.6-82.8-81.7 0-19 7.3-37.8 17.1-51.4 9.2 13.9 18 32.8 18 51.1 0 45.1-37.1 81.7-82.8 81.7-5 0-10.7-1.1-15.4-2z"/>
    </g>

    <g transform="translate(260, 50)">
      <circle cx="50" cy="50" r="48" stroke-width="6"/>
      <path d="M50 2c25 40 25 60 0 96-25-36-25-56 0-96z" stroke-width="5"/>
      <path d="M50 2C90 27 110 27 146 50c-36 23-56 23-96 0" transform="rotate(120, 50, 50)" stroke-width="5"/>
      <path d="M50 2C90 27 110 27 146 50c-36 23-56 23-96 0" transform="rotate(240, 50, 50)" stroke-width="5"/>
    </g>

    <g transform="translate(430, 60) scale(0.45)" stroke-width="15">
      <circle cx="100" cy="100" r="90"/>
      <circle cx="170" cy="220" r="90"/>
      <circle cx="30" cy="220" r="90"/>
    </g>

    <g transform="translate(600, 50)">
      <circle cx="50" cy="50" r="48" stroke-width="6"/>
      <g transform="translate(-615, -15) scale(0.9)">
        <path d="M663.9 116.7c6.6 0 13.2-4.3 13.2-19.2 1-14.7-1.1-29.3 1-44.3 2-15 15.4-15.6 15.4-15.6 0 0 .4-1.8-2.6-5.1-3-3.4-10.6-9.6-18.3-9.6-7.7 0-21.9 5.6-21.9 22.5 0 16.9 1 31.9 1 48.8 0 16.9 5.3 22.6 12.1 22.6z"/>
        <path fill="#e09e28" stroke="none" d="M659.6 130c1.1 0 3.2.2 3.2-5.5 0-5.7-.4-36.6-.4-38.7 0-2.1-.4-37.6-.2-39.6.2-2 4.7-6.9 7.8-9.2 3.1-2.3 10.2-3.6 10.2-3.6-.9.8-3.6 2.5-4.9 3.5-1.3 1-6.9 8.5-8.5 11.1-1.6 2.6-.6 68.9-.6 75.7 0 6.8-5.3 8-6.7 6.2z"/>
        <path d="M663 108.7l-8.4-9.6m8.4-8.6l-8.6-10m8.8-9.4l-8.9-10.2m9.1-8.9l-9.1-9.6m9.3-8l-8.4-8.6m8.6-8.4l-8.9-10m9.1-9.3l-8.6-10.5m8.6-7l-5.7-12.5m8.7-4.6l-1.6-12.7m4.5-5.7l2.7-10.2m-5.2 70.5l8.4-9.6m0-8.6l8.6-10m-.2-9.4l8.9-10.2m-.3-8.9l9.1-9.6m-.2-8l8.4-8.6m-.2-8.4l9.8-10.2m-.2-9.3l11.6-10.7m-8.3 10.9l10.5-4.8m-7 5.3l11.4-4.5m-9.7 4.2l11.4-4.5" stroke-width="1.5"/>
      </g>
    </g>
  </g>
</svg>