<svg xmlns="http://www.w3.org/2000/svg" width="147.48" height="147.53" viewBox="0 0 147.48 147.53">
  <g transform="translate(-595.69259, -1.7898204)" fill="none" stroke="#e09e28" stroke-width="1.9886">
    <path d="m 842.46724,422.02701 c 0,75.87329 -61.50746,137.38075 -137.38075,137.38075 -75.8733,0 -137.38076,-61.50746 -137.38076,-137.38075 0,-75.8733 61.50746,-137.38075 137.38076,-137.38075 75.87329,0 137.38075,61.50745 137.38075,137.38075 z" 
          transform="matrix(0.481921,0,0,0.482127,329.6349,-127.9142)" 
          stroke-width="31.25"/>
    
    <path d="m 663.89739,116.74092 c 6.63469,0 13.24555,-4.35228 13.24555,-19.252216 0.96402,-14.707479 -1.12468,-29.264234 0.96402,-44.293191 2.0887,-15.028957 15.4242,-15.573099 15.4242,-15.573099 0,0 0.40169,-1.768112 -2.57069,-5.143599 -2.97238,-3.375487 -10.62908,-9.644251 -18.31625,-9.644251 -7.67056,0 -21.85096,5.625812 -21.85096,22.50325 0,16.877438 0.96402,31.874203 0.96402,48.758776 0,16.87797 5.32711,22.64433 12.14011,22.64433 z"/>
    <path fill="#e09e28" d="m 659.58198,129.97613 c 1.09321,0.0339 3.17873,0.17106 3.17873,-5.47514 0,-5.67656 -0.41756,-36.590022 -0.39001,-38.67747 0.0275,-2.087448 -0.37912,-37.577196 -0.16077,-39.567219 0.21835,-1.990023 4.73457,-6.896532 7.80208,-9.1696 3.06751,-2.273068 10.23178,-3.576076 10.23178,-3.576076 -0.90489,0.769031 -3.58662,2.487732 -4.8674,3.519407 -1.28078,1.031676 -6.89463,8.486053 -8.50574,11.046678 -1.61111,2.560625 -0.60287,68.92899 -0.60287,75.67644 0,6.76729 -5.25235,8.01235 -6.6858,6.22298 z"/>
    
    <path d="m 663.03373,108.70097 c -1.43552,-1.43613 -7.73317,-8.873046 -8.40714,-9.54732"/>
    <path d="m 663.03373,100.06292 c -1.43552,-1.436132 -7.96039,-9.327683 -8.63437,-10.001956"/>
    <path d="m 663.26093,90.74292 c -1.43553,-1.436133 -8.18763,-9.554999 -8.8616,-10.229272"/>
    <path d="m 663.48818,81.877549 c -1.43552,-1.436133 -8.41481,-8.87305 -9.08879,-9.547323"/>
    <path d="m 663.71538,73.921452 c -1.43553,-1.436133 -7.73318,-7.963779 -8.40715,-8.638052"/>
    <path d="m 663.9426,65.510718 c -1.43553,-1.436133 -8.18762,-9.327684 -8.8616,-10.001957"/>
    <path d="m 664.16983,56.190714 c -1.43553,-1.436134 -7.9604,-9.782318 -8.63438,-10.456591"/>
    <path d="m 664.16986,49.143885 c -1.43553,-1.436134 -5.10655,-11.828172 -5.78052,-12.502445"/>
    <path d="m 667.23728,44.59754 c -1.43553,-1.436133 -0.91657,-12.055487 -1.59054,-12.72976"/>
    <path d="m 671.78167,38.914609 c -1.43552,-1.436133 3.40064,-9.554999 2.72667,-10.229272"/>
    <path d="m 666.60106,109.36019 c 1.43553,-1.43613 7.73317,-8.87305 8.40715,-9.547319"/>
    <path d="m 666.60106,100.72214 c 1.43553,-1.436132 7.9604,-9.327682 8.63437,-10.001956"/>
    <path d="m 666.37387,91.40214 c 1.43552,-1.436133 8.18762,-9.554999 8.8616,-10.229272"/>
    <path d="m 666.14661,82.536769 c 1.43553,-1.436133 8.41482,-8.87305 9.08879,-9.547323"/>
    <path d="m 665.91942,74.580672 c 1.43553,-1.436133 7.73317,-7.963779 8.40715,-8.638052"/>
    <path d="m 665.69219,66.169939 c 1.43553,-1.436134 9.09649,-9.555003 9.77047,-10.229276"/>
    <path d="m 665.46497,56.849934 c 1.43553,-1.436133 10.91425,-10.009636 11.58823,-10.68391"/>
    <path d="m 668.71422,45.961441 c 1.43553,-1.436133 9.77813,-4.09939 10.45211,-4.773663"/>
    <path d="m 672.12253,40.61949 c 1.43552,-1.436133 10.68699,-3.872072 11.36097,-4.546345"/>
    <path d="m 673.71307,36.414125 c 1.43552,-1.436134 10.68699,-3.872072 11.36097,-4.546345"/>
  </g>
</svg>